<?xml version="1.0" encoding="UTF-8"?>
<svg id="Capa_5" data-name="Capa 5" xmlns="http://www.w3.org/2000/svg" viewBox="0 0 1394.5 207.21">
  <defs>
    <style>
      .cls-1 {
        letter-spacing: 0em;
      }

      .cls-2 {
        letter-spacing: .01em;
      }

      .cls-3 {
        font-family: Mont-HeavyDEMO, Mont;
        font-size: 176.58px;
        font-weight: 800;
      }

      .cls-3, .cls-4 {
        fill: #34e867;
      }

      .cls-4, .cls-5 {
        stroke-width: 0px;
      }

      .cls-5 {
        fill: #111;
      }
    </style>
  </defs>
  <path class="cls-5" d="M70.27,184.33C29.46,184.33,0,155.73,0,116.36S29.32,48.93,70.4,48.93c35.76,0,62.58,22.55,67.38,56.39h-42.7c-3.69-10.38-13.39-17.12-24.82-17.12-15.4,0-26.36,11.71-26.36,28.29s11.1,28.56,26.36,28.56c11.76,0,21.29-7.2,24.91-18.56h43.07c-4.96,34.56-32.15,57.84-67.98,57.84h0Z"/>
  <path class="cls-5" d="M153.31,116.53c0-39.45,29.86-67.8,71.35-67.8s71.35,28.35,71.35,67.8-29.99,67.8-71.35,67.8-71.35-28.49-71.35-67.8ZM224.65,144.96c15.98,0,27.44-11.6,27.44-28.42s-11.46-28.42-27.44-28.42-27.44,11.6-27.44,28.42,11.46,28.42,27.44,28.42h0Z"/>
  <path class="cls-4" d="M368.74,49.14c16.46,0,30.58,6.33,40.06,16.88l6.02-13.12h30.75v127.25h-43.83v-67.95c0-16.2-7.86-25.74-21.53-25.74-11.03,0-16.59,7.35-16.59,22.16v71.54h-43.83v-77.59c0-32.42,19.41-53.42,48.96-53.42Z"/>
  <path class="cls-5" d="M560.19,141.77v38.39h-30.16c-28.14,0-45.25-17.2-45.25-45.48v-48.02h-23.29v-10.25l57.01-60.71h9v37.21h31.97v33.75h-30.86v40.5c0,9.11,5.5,14.61,14.75,14.61h16.82Z"/>
  <path class="cls-5" d="M667.05,52.3v40.11h-17.02c-15.52,0-22.02,6.81-22.02,23.04v64.71h-43.83V52.91h29.37l6.84,14.12c8.97-10.38,19.91-14.73,35.05-14.73h11.61Z"/>
  <path class="cls-5" d="M820.5,52.77v127.25h-33.88l-3.75-9c-10.42,8.44-23.62,13.31-38.4,13.31-38.91,0-66.72-28.39-66.72-67.93s27.81-67.46,66.72-67.46c14.99,0,28.37,5.01,38.88,13.67l4.48-9.84h32.67ZM778.81,116.5c0-16.52-12.07-28.92-28.49-28.92s-28.49,12.41-28.49,28.92,12.07,29.02,28.49,29.02,28.49-12.41,28.49-29.02Z"/>
  <path class="cls-5" d="M980.64,52.91l-51.16,127.25h-39.7l-51.84-127.25h48.02l24.05,75.37,23.78-75.37h46.84Z"/>
  <path class="cls-5" d="M998.23,52.9h43.83v127.25h-43.83V52.9Z"/>
  <path class="cls-5" d="M1208.62,52.77v127.25h-33.88l-3.75-9c-10.42,8.44-23.62,13.31-38.4,13.31-38.91,0-66.72-28.39-66.72-67.93s27.81-67.46,66.72-67.46c14.99,0,28.38,5.01,38.88,13.67l4.48-9.84h32.67ZM1166.93,116.5c0-16.52-12.07-28.92-28.49-28.92s-28.48,12.41-28.48,28.92,12.07,29.02,28.48,29.02,28.49-12.41,28.49-29.02Z"/>
  <text class="cls-3" transform="translate(1226.22 150.31)"><tspan class="cls-1" x="0" y="0">( </tspan><tspan class="cls-2" x="102.59" y="0">)</tspan></text>
</svg>